<svg width="31" height="32" viewBox="0 0 31 32" fill="none" xmlns="http://www.w3.org/2000/svg">
<path d="M24.5841 7.66548V17.121C24.5841 17.2235 24.5595 17.3163 24.5152 17.4067C24.467 17.4942 24.3955 17.5669 24.3084 17.6167L22.7432 18.4885V8.71554C22.7378 8.51671 22.6844 8.32205 22.5877 8.14786C22.4909 7.97367 22.3535 7.82501 22.1869 7.71432L14.4836 3.28695C13.8905 2.95273 13.3904 2.47727 13.0287 1.90345C12.6669 1.32963 12.4548 0.67548 12.4114 0L24.0377 6.61785C24.2028 6.74071 24.3379 6.89892 24.4329 7.08071C24.528 7.26251 24.5805 7.46322 24.5865 7.66792L24.5841 7.66548Z" fill="#1F26CC"/>
<path d="M27.3552 19.6315L19.0981 24.3299C19.0136 24.3756 18.9187 24.3991 18.8225 24.3983C18.7262 24.3991 18.6314 24.3756 18.5468 24.3299L17.0283 23.4654L25.5536 18.5814C25.7327 18.483 25.88 18.3363 25.9784 18.1582C26.0769 17.9801 26.1224 17.778 26.1098 17.5753V8.80847C26.11 8.13117 26.2785 7.46437 26.6005 6.86716C26.9225 6.26995 27.3879 5.76077 27.9557 5.38477V18.6254C27.9531 18.8305 27.8963 19.0315 27.7909 19.208C27.6855 19.3846 27.5353 19.5306 27.3552 19.6315Z" fill="#1F26CC"/>
<path d="M18.2662 27.983L10.014 23.2846C9.9195 23.2375 9.84208 23.1624 9.79252 23.0697C9.74677 22.9791 9.72718 22.8776 9.73591 22.7766V21.0013L18.2662 25.8853C18.4447 25.9778 18.6431 26.026 18.8445 26.026C19.0459 26.026 19.2443 25.9778 19.4229 25.8853L27.1262 21.5044C27.7114 21.1688 28.3707 20.981 29.0462 20.9576C29.7217 20.9342 30.3926 21.0758 31 21.37L19.4229 27.9879C19.2516 28.1011 19.0503 28.1615 18.8445 28.1615C18.6387 28.1615 18.4375 28.1011 18.2662 27.9879V27.983Z" fill="#1F26CC"/>
<path d="M6.41091 24.3786V14.9769C6.41025 14.8758 6.4354 14.7762 6.48404 14.6874C6.53267 14.5986 6.60319 14.5234 6.68902 14.469L8.25675 13.6021V23.3286C8.26008 23.5278 8.3125 23.7233 8.40946 23.8978C8.50641 24.0723 8.64494 24.2206 8.81296 24.3298L16.5163 28.7157C17.1168 29.0575 17.5992 29.5215 17.9683 30.1027C18.3375 30.6888 18.5418 31.3188 18.5885 32.0002L7.01142 25.3823C6.82884 25.2841 6.67641 25.1388 6.57026 24.9617C6.46412 24.7846 6.40821 24.5823 6.40845 24.3762L6.41091 24.3786Z" fill="#1F26CC"/>
<path d="M3.64717 12.415L11.9042 7.66773C11.9899 7.62334 12.0857 7.60148 12.1823 7.60423C12.2857 7.60423 12.3669 7.62377 12.4531 7.67017L14.0282 8.53953L5.44379 13.4724C5.26653 13.5707 5.12134 13.7173 5.0254 13.8949C4.9275 14.0707 4.88224 14.2707 4.89496 14.4712V23.2868C4.89496 23.9706 4.72268 24.6202 4.39781 25.2234C4.07295 25.8265 3.61764 26.3223 3.0442 26.7057V13.4699C3.04338 13.2572 3.09859 13.048 3.20435 12.8629C3.31011 12.6779 3.46276 12.5235 3.64717 12.415Z" fill="#1F26CC"/>
<path d="M12.7314 4.06356L20.9884 8.762C21.0796 8.80914 21.1536 8.88344 21.2001 8.97445C21.2493 9.06236 21.269 9.16249 21.2641 9.26749V10.9964L12.7289 6.16125C12.5515 6.06803 12.3538 6.01929 12.153 6.01929C11.9522 6.01929 11.7545 6.06803 11.5771 6.16125L3.8738 10.5422C3.28861 10.8778 2.62928 11.0656 1.95379 11.089C1.27831 11.1124 0.607369 10.9708 0 10.6765L11.5771 4.05868C11.7479 3.94652 11.9482 3.88672 12.153 3.88672C12.3578 3.88672 12.5581 3.94652 12.7289 4.05868L12.7314 4.06356ZM15.5026 18.4446C15.389 18.4331 15.2786 18.3999 15.1777 18.3469L9.73864 15.2455V16.6131L15.5026 19.9025L21.2665 16.618V15.2504L15.8275 18.4006C15.729 18.4006 15.5961 18.4495 15.5026 18.4495V18.4446Z" fill="#1F26CC"/>
<path d="M15.8272 21.1845C15.7253 21.2307 15.6144 21.2541 15.5024 21.2529C15.3903 21.2541 15.2794 21.2307 15.1775 21.1845L9.73843 18.0783V19.0844C9.73843 19.1943 9.76304 19.292 9.82457 19.3823C9.88056 19.4705 9.96085 19.5408 10.0559 19.585L15.2243 22.5106C15.3178 22.5555 15.4206 22.5781 15.5245 22.5765C15.6284 22.5781 15.7313 22.5555 15.8248 22.5106L20.9857 19.5875C21.0793 19.5386 21.158 19.4702 21.2146 19.3799C21.2718 19.2924 21.3042 19.1911 21.3081 19.0868V18.0856L15.8272 21.1845ZM15.5024 22.5106L21.3081 19.0868L21.2663 13.1454C21.2649 13.0402 21.2337 12.9374 21.1762 12.8489C21.1188 12.7604 21.0374 12.6897 20.9414 12.6448L15.778 9.67533C15.6847 9.62952 15.5819 9.6061 15.4778 9.60696C15.3737 9.6061 15.2708 9.62952 15.1775 9.67533L10.0141 12.6473C9.92129 12.6959 9.84187 12.7664 9.78273 12.8524C9.72551 12.9399 9.69319 13.0412 9.68921 13.1454L9.73843 19.0844L15.5024 22.5106Z" fill="#1F26CC"/>
</svg>
